<svg width="67" height="67" viewBox="0 0 67 67" fill="none" xmlns="http://www.w3.org/2000/svg">
<g id="icon/AI portrait">
<g id="Vector">
<path d="M48.8836 20.6162C49.2311 19.1833 51.269 19.1833 51.6164 20.6162L52.5725 24.5589C52.6966 25.0705 53.096 25.47 53.6076 25.594L57.5503 26.5501C58.9832 26.8975 58.9832 28.9355 57.5503 29.2829L53.6076 30.239C53.096 30.363 52.6966 30.7625 52.5725 31.2741L51.6164 35.2168C51.269 36.6497 49.2311 36.6497 48.8836 35.2168L47.9275 31.2741C47.8035 30.7625 47.404 30.363 46.8924 30.239L42.9497 29.2829C42.8601 29.2612 42.7762 29.2329 42.6978 29.1988C41.5224 28.6873 41.6063 26.8758 42.9497 26.5501L46.8924 25.594C47.404 25.47 47.8035 25.0705 47.9275 24.5589L48.8836 20.6162Z" fill="white"/>
<path fill-rule="evenodd" clip-rule="evenodd" d="M31.4988 41.9539C28.2009 41.3351 24.8408 41.3351 21.5429 41.9539C19.9034 42.2615 18.5731 43.9708 18.5731 46.1409V46.8847C18.5731 47.5202 18.987 47.8432 19.2916 47.8432H33.7501C34.0547 47.8432 34.4686 47.5202 34.4686 46.8847V46.1409C34.4686 43.9708 33.1383 42.2615 31.4988 41.9539ZM20.7846 36.8263C24.5846 36.1132 28.4571 36.1132 32.2571 36.8263C36.2611 37.5776 39.0833 41.5918 39.0833 46.1409V46.8847C39.0833 50.1789 36.7878 53.0415 33.7501 53.0415H19.2916C16.2539 53.0415 13.9583 50.1789 13.9583 46.8847V46.1409C13.9583 41.5918 16.7806 37.5776 20.7846 36.8263Z" fill="white"/>
<path fill-rule="evenodd" clip-rule="evenodd" d="M20.3155 5.10765C20.5782 6.39159 19.7502 7.64533 18.4663 7.90795C15.4255 8.52994 13.119 9.73957 11.4294 11.4292C9.73974 13.1188 8.53011 15.4253 7.90813 18.4661C7.6455 19.75 6.39176 20.578 5.10782 20.3154C3.82388 20.0527 2.99594 18.799 3.25856 17.5151C4.03241 13.7318 5.61445 10.5325 8.07355 8.07338C10.5327 5.61427 13.732 4.03224 17.5152 3.25839C18.7992 2.99576 20.0529 3.82371 20.3155 5.10765ZM61.8723 43.5785C63.1585 43.8301 63.9971 45.0767 63.7454 46.3629C62.2562 53.9745 57.6163 62.1292 47.8485 63.7571C46.5558 63.9726 45.3332 63.0993 45.1177 61.8066C44.9023 60.5139 45.7756 59.2913 47.0682 59.0759C54.0504 57.9122 57.7855 52.1085 59.0879 45.4516C59.3396 44.1655 60.5862 43.3268 61.8723 43.5785ZM5.58335 43.5343C6.89387 43.5343 7.95626 44.5967 7.95626 45.9072C7.95626 53.2227 12.6587 57.9038 18.4663 59.0917C19.7502 59.3543 20.5782 60.6081 20.3155 61.892C20.0529 63.176 18.7992 64.0039 17.5152 63.7413C9.67469 62.1375 3.21043 55.6519 3.21043 45.9072C3.21043 44.5967 4.27282 43.5343 5.58335 43.5343Z" fill="white"/>
<path fill-rule="evenodd" clip-rule="evenodd" d="M26.5208 28.4748C29.1419 28.4748 31.2667 26.3501 31.2667 23.729C31.2667 21.108 29.1419 18.9832 26.5208 18.9832C23.8998 18.9832 21.775 21.108 21.775 23.729C21.775 26.3501 23.8998 28.4748 26.5208 28.4748ZM26.5208 33.4998C31.9171 33.4998 36.2917 29.1253 36.2917 23.729C36.2917 18.3327 31.9171 13.9582 26.5208 13.9582C21.1246 13.9582 16.75 18.3327 16.75 23.729C16.75 29.1253 21.1246 33.4998 26.5208 33.4998Z" fill="white"/>
<path d="M47.4583 5.58317C47.4583 7.12497 46.2085 8.37484 44.6667 8.37484C43.1249 8.37484 41.875 7.12497 41.875 5.58317C41.875 4.04138 43.1249 2.7915 44.6667 2.7915C46.2085 2.7915 47.4583 4.04138 47.4583 5.58317Z" fill="white"/>
<path d="M61.4167 11.1665C61.4167 12.7083 60.1668 13.9582 58.625 13.9582C57.0832 13.9582 55.8333 12.7083 55.8333 11.1665C55.8333 9.62471 57.0832 8.37484 58.625 8.37484C60.1668 8.37484 61.4167 9.62471 61.4167 11.1665Z" fill="white"/>
<path d="M53.0417 44.6665C53.0417 46.2083 51.7918 47.4582 50.25 47.4582C48.7082 47.4582 47.4583 46.2083 47.4583 44.6665C47.4583 43.1247 48.7082 41.8748 50.25 41.8748C51.7918 41.8748 53.0417 43.1247 53.0417 44.6665Z" fill="white"/>
</g>
</g>
</svg>
