<svg width="32" height="39" viewBox="0 0 32 39" fill="none" xmlns="http://www.w3.org/2000/svg">
<g id="User 01c">
<path id="Combined Shape" d="M26.6329 18.3934C27.8226 14.442 28.556 7.68671 23.5529 3.06671C19.7293 -0.464147 9.39953 -0.81996 5.8062 6.88004C5.20633 8.16543 6.0262 10.18 7.63953 10.1067C8.27357 10.0774 8.6662 12.0867 9.03287 13.3334C8.51953 18.3934 3.94617 18.4868 1.6262 22.3534C-1.2338 27.12 2.2862 34.16 10.7195 34.16C19.1529 34.16 23.9873 27.1794 26.6329 18.3934Z" fill="url(#paint0_linear_6251_1423)"/>
<g id="Group 16">
<path id="Rectangle" d="M29.4926 29.969C30.5681 32.0406 31.1059 39.5867 31.1059 39.5867H0.892578C0.892578 39.5867 1.4304 32.0406 2.50591 29.969C4.11924 26.8618 15.9992 22.8667 15.9992 22.8667C15.9992 22.8667 27.8792 26.8618 29.4926 29.969Z" fill="url(#paint1_linear_6251_1423)"/>
<path id="Mask" d="M19.5188 24.6268C19.5188 24.6268 17.6464 25.6535 15.924 25.6535C14.2015 25.6535 12.4788 24.6268 12.4788 24.6268V21.4001C12.1082 21.4587 11.7328 21.481 11.3579 21.4667C7.8397 21.4664 6.5131 16.3417 7.19876 10.1068C7.63876 10.1068 8.66543 10.1068 10.1321 8.05347C9.76543 10.9135 14.0188 10.4735 15.6321 8.20013C14.8254 10.9135 16.9521 12.7468 18.7854 11.6468C22.3804 9.48977 23.1885 16.0653 19.5188 16.1201V24.6268Z" fill="url(#paint2_linear_6251_1423)"/>
<g id="Group 16_2">
<g id="Path 2" style="mix-blend-mode:multiply" opacity="0.782">
<path d="M12.4795 21.4002C14.2989 21.0652 16.0398 20.3937 17.6128 19.4202C17.6128 19.4202 15.7795 22.5735 12.4795 22.5735V21.4002Z" fill="#FFD7B8"/>
</g>
</g>
</g>
<g id="Group 9">
<path id="Combined Shape_2" d="M16.0039 25.503C17.0639 25.4551 19.5191 24.9359 19.5191 23.8142V22.8667C19.7881 22.8667 20.5582 23.5021 20.9544 24.04C22.5202 26.1667 20.7834 28.0734 19.3669 28.0734C17.5796 28.0734 16.3951 26.58 15.9991 25.8616C15.6031 26.5803 14.4186 28.0734 12.6313 28.0734C11.2148 28.0734 9.478 26.1667 11.0438 24.04C11.44 23.5021 12.2101 22.8667 12.4791 22.8667V23.8142C12.4791 24.9359 15.0006 25.4551 16.0039 25.503Z" fill="white"/>
</g>
<path id="Combined Shape_3" d="M15.4131 35.4799C15.4131 35.3639 15.4475 35.2505 15.512 35.154C15.5764 35.0575 15.668 34.9823 15.7752 34.9379C15.8824 34.8935 16.0004 34.8819 16.1142 34.9045C16.228 34.9272 16.3325 34.9831 16.4146 35.0651C16.4966 35.1472 16.5525 35.2517 16.5751 35.3655C16.5978 35.4793 16.5862 35.5972 16.5418 35.7044C16.4974 35.8116 16.4222 35.9033 16.3257 35.9677C16.2292 36.0322 16.1158 36.0666 15.9998 36.0666C15.8442 36.0666 15.6949 36.0048 15.5849 35.8948C15.4749 35.7848 15.4131 35.6355 15.4131 35.4799ZM15.4131 32.5466C15.4131 32.4306 15.4475 32.3172 15.512 32.2207C15.5764 32.1242 15.668 32.049 15.7752 32.0046C15.8824 31.9602 16.0004 31.9486 16.1142 31.9712C16.228 31.9939 16.3325 32.0497 16.4146 32.1318C16.4966 32.2138 16.5525 32.3184 16.5751 32.4322C16.5978 32.546 16.5862 32.6639 16.5418 32.7711C16.4974 32.8783 16.4222 32.9699 16.3257 33.0344C16.2292 33.0989 16.1158 33.1333 15.9998 33.1333C15.8442 33.1333 15.6949 33.0715 15.5849 32.9614C15.4749 32.8514 15.4131 32.7022 15.4131 32.5466ZM15.4131 29.6133C15.4131 29.4972 15.4475 29.3838 15.512 29.2873C15.5764 29.1909 15.668 29.1157 15.7752 29.0713C15.8824 29.0269 16.0004 29.0152 16.1142 29.0379C16.228 29.0605 16.3325 29.1164 16.4146 29.1984C16.4966 29.2805 16.5525 29.385 16.5751 29.4988C16.5978 29.6126 16.5862 29.7306 16.5418 29.8378C16.4974 29.945 16.4222 30.0366 16.3257 30.1011C16.2292 30.1655 16.1158 30.1999 15.9998 30.1999C15.8442 30.1999 15.6949 30.1381 15.5849 30.0281C15.4749 29.9181 15.4131 29.7689 15.4131 29.6133Z" fill="url(#paint3_linear_6251_1423)"/>
</g>
<defs>
<linearGradient id="paint0_linear_6251_1423" x1="14.0756" y1="0.659668" x2="14.0756" y2="34.16" gradientUnits="userSpaceOnUse">
<stop stop-color="#130027"/>
<stop offset="1" stop-color="#130017"/>
</linearGradient>
<linearGradient id="paint1_linear_6251_1423" x1="15.9992" y1="39.5867" x2="15.9992" y2="22.8667" gradientUnits="userSpaceOnUse">
<stop stop-color="#E6864E"/>
<stop offset="1" stop-color="#E67240"/>
</linearGradient>
<linearGradient id="paint2_linear_6251_1423" x1="14.4656" y1="8.05347" x2="14.4656" y2="25.6535" gradientUnits="userSpaceOnUse">
<stop stop-color="#FFE0CC"/>
<stop offset="1" stop-color="#FFEADB"/>
</linearGradient>
<linearGradient id="paint3_linear_6251_1423" x1="15.9998" y1="29.0266" x2="15.9998" y2="36.0666" gradientUnits="userSpaceOnUse">
<stop stop-color="#130027"/>
<stop offset="1" stop-color="#130017"/>
</linearGradient>
</defs>
</svg>
